<svg xml:space="preserve" xmlns="http://www.w3.org/2000/svg" viewBox="-1477.45 -146.55 264.03 38.75"><path d="M10.5 41.4H5.4V4h5.9c.3 0 .5.1.5.4L19.5 30h.5l7.6-25.6c.1-.3.2-.4.5-.4H34v37.4h-5.1V17.5h-.5l-7 23.9h-3.3l-7-23.9h-.5v23.9zm56.4 0-2.5-8.1H51.2l-2.5 8.1h-4.5v-3.6l9.7-33.4c.1-.3.3-.4.6-.4h6.7c.3 0 .5.1.5.4l9.8 33.4v3.6zM57.5 9.6l-4.9 18.7h10.5l-5-18.7zm30.4 31.8V8.8h-9.2V4h23.6v4.8h-9.2v32.6zM135 24.5l1.8 1.8c.2.3.3.5.3.7v14.4H132V26.9c0-.1-.1-.2-.2-.2h-13.1v14.7h-5.1V4h19.9c.2 0 .5.1.7.3l2.6 2.6c.2.3.3.5.3.7v13.8c0 .3-.1.5-.3.7L135 24Zm-3-2.9V9c0-.1-.1-.2-.2-.2h-13.1v13h13.1c.1 0 .2-.1.2-.2M153.5 4v37.4h-5.1V4Zm23.1 23.4-8.1 14.1h-3.8v-3.7l8.4-15-8.4-15.2V4h4l7.9 14h.5L185 4h3.9v3.7l-8.3 14.9 8.4 15.1v3.7h-3.9l-8-14.1h-.5z" style="fill:#fff;fill-opacity:1;stroke:none;stroke-width:3;stroke-linecap:butt;stroke-linejoin:miter;stroke-miterlimit:5;stroke-dasharray:none;stroke-dashoffset:0;stroke-opacity:1;paint-order:stroke fill markers" transform="translate(-1482.84 -149.82)"/><g style="display:inline;fill:#fff;fill-opacity:1;stroke:none;stroke-width:3;stroke-linecap:butt;stroke-linejoin:miter;stroke-miterlimit:5;stroke-dasharray:none;stroke-dashoffset:0;stroke-opacity:1;paint-order:stroke fill markers"><path d="M228.2 3.4s-.1 0 0 0l-17.9-.1-2.8 2.8v33.1l2.8 2.8h17.9l2.8-2.8v-33s0-.1-.1-.1zm-.4 34.8-1 1h-15.2l-1-1v-31l1-1h15.2l1 1zm38.7 3.8 2.8-2.8v-15s0-.1-.1-.1l-1.2-1.2c-.2-.2-.3-.2-.3-.2l-17.2-3.9c-.9-.2-1.4-.4-1.4-.4V7.1l1-1h15.2l1 1V13h3.1V6.2s0-.1-.1-.1l-2.7-2.7s-.1 0-.1-.1h-17.9l-2.8 2.8v13.7l1.4 1.4s.1 0 .1.1l17.3 3.9 1.4.4v12.5l-1 1h-15.2l-1-1v-7.4h-3.1v8.5l2.8 2.8z" style="fill:#fff;fill-opacity:1;stroke:none;stroke-width:3;stroke-linecap:butt;stroke-linejoin:miter;stroke-miterlimit:5;stroke-dasharray:none;stroke-dashoffset:0;stroke-opacity:1;paint-order:stroke fill markers" transform="translate(-1482.84 -149.82)"/><path d="M228.2 3.4s-.1 0 0 0l-17.9-.1-2.8 2.8v33.1l2.8 2.8h17.9l2.8-2.8v-33s0-.1-.1-.1zm-.4 34.8-1 1h-15.2l-1-1v-31l1-1h15.2l1 1zm38.7 3.8 2.8-2.8v-15s0-.1-.1-.1l-1.2-1.2c-.2-.2-.3-.2-.3-.2l-17.2-3.9c-.9-.2-1.4-.4-1.4-.4V7.1l1-1h15.2l1 1V13h3.1V6.2s0-.1-.1-.1l-2.7-2.7s-.1 0-.1-.1h-17.9l-2.8 2.8v13.7l1.4 1.4s.1 0 .1.1l17.3 3.9 1.4.4v12.5l-1 1h-15.2l-1-1v-7.4h-3.1v8.5l2.8 2.8z" style="fill:#fff;fill-opacity:1;stroke:none;stroke-width:3;stroke-linecap:butt;stroke-linejoin:miter;stroke-miterlimit:5;stroke-dasharray:none;stroke-dashoffset:0;stroke-opacity:1;paint-order:stroke fill markers" transform="translate(-1482.84 -149.82)"/></g></svg>