<?xml version="1.0" encoding="utf-8"?>
<!-- Generator: Adobe Illustrator 28.2.0, SVG Export Plug-In . SVG Version: 6.00 Build 0)  -->
<svg version="1.1" id="Layer_1" xmlns="http://www.w3.org/2000/svg" xmlns:xlink="http://www.w3.org/1999/xlink" x="0px" y="0px"
	 viewBox="0 0 274.6 45.4" style="enable-background:new 0 0 274.6 45.4;" xml:space="preserve">
<g>
	<path d="M10.5,41.4H5.4V4h5.9c0.3,0,0.5,0.1,0.5,0.4L19.5,30H20l7.6-25.6C27.7,4.1,27.8,4,28.1,4h5.9v37.4h-5.1V17.5h-0.5l-7,23.9
		h-3.3l-7-23.9h-0.5V41.4z"/>
	<path d="M66.9,41.4l-2.5-8.1H51.2l-2.5,8.1h-4.5v-3.6l9.7-33.4C54,4.1,54.2,4,54.5,4h6.7c0.3,0,0.5,0.1,0.5,0.4l9.8,33.4v3.6H66.9z
		 M57.5,9.6l-4.9,18.7h10.5l-5-18.7H57.5z"/>
	<path d="M87.9,41.4V8.8h-9.2V4h23.6v4.8h-9.2v32.6H87.9z"/>
	<path d="M135,24.5l1.8,1.8c0.2,0.3,0.3,0.5,0.3,0.7v14.4H132V26.9c0-0.1-0.1-0.2-0.2-0.2h-13.1v14.7h-5.1V4h19.9
		c0.2,0,0.5,0.1,0.7,0.3l2.6,2.6c0.2,0.3,0.3,0.5,0.3,0.7v13.8c0,0.3-0.1,0.5-0.3,0.7L135,24V24.5z M132,21.6V9
		c0-0.1-0.1-0.2-0.2-0.2h-13.1v13h13.1C131.9,21.8,132,21.7,132,21.6z"/>
	<path d="M153.5,4v37.4h-5.1V4H153.5z"/>
	<path d="M176.6,27.4l-8.1,14.1h-3.8v-3.7l8.4-15l-8.4-15.2V4h4l7.9,14h0.5L185,4h3.9v3.7l-8.3,14.9l8.4,15.1v3.7h-3.9l-8-14.1
		H176.6z"/>
</g>
<g>
	<path d="M228.2,3.4C228.2,3.4,228.1,3.4,228.2,3.4l-17.9-0.1l-2.8,2.8l0,33.1l2.8,2.8l17.9,0l2.8-2.8l0-33c0,0,0-0.1-0.1-0.1
		L228.2,3.4z M227.8,38.2l-1,1h-15.2l-1-1v-31l1-1h15.2l1,1V38.2z"/>
	<path d="M266.5,42l2.8-2.8l0-15c0,0,0-0.1-0.1-0.1l-1.2-1.2c-0.2-0.2-0.3-0.2-0.3-0.2l-17.2-3.9c-0.9-0.2-1.4-0.4-1.4-0.4V7.1l1-1
		h15.2l1,1V13h3.1V6.2c0,0,0-0.1-0.1-0.1l-2.7-2.7c0,0-0.1,0-0.1-0.1h-17.9l-2.8,2.8l0,13.7l1.4,1.4c0,0,0.1,0,0.1,0.1l17.3,3.9
		l1.4,0.4v12.5l-1,1h-15.2l-1-1v-7.4h-3.1v8.5l2.8,2.8L266.5,42z"/>
</g>
</svg>
